<svg xmlns="http://www.w3.org/2000/svg" xmlns:xlink="http://www.w3.org/1999/xlink" width="1080" zoomAndPan="magnify" viewBox="0 0 810 809.999993" height="1080" preserveAspectRatio="xMidYMid meet" version="1.0"><defs><clipPath id="442fedbaa7"><path d="M 0 107 L 810 107 L 810 727 L 0 727 Z M 0 107 " clip-rule="nonzero"/></clipPath><clipPath id="b9edcea563"><path d="M -65.003906 159.46875 L 845.269531 105.308594 L 879.15625 674.839844 L -31.117188 729 Z M -65.003906 159.46875 " clip-rule="nonzero"/></clipPath><clipPath id="015caaaf6d"><path d="M -26.824219 157.199219 L 807.085938 107.582031 C 817.210938 106.976562 827.164062 110.421875 834.75 117.15625 C 842.335938 123.890625 846.9375 133.363281 847.539062 143.492188 L 876.882812 636.65625 C 877.484375 646.78125 874.042969 656.734375 867.304688 664.320312 C 860.570312 671.90625 851.097656 676.507812 840.972656 677.109375 L 7.066406 726.726562 C -3.0625 727.332031 -13.011719 723.886719 -20.601562 717.152344 C -28.1875 710.417969 -32.789062 700.945312 -33.390625 690.816406 L -62.734375 197.652344 C -63.335938 187.527344 -59.890625 177.574219 -53.15625 169.988281 C -46.421875 162.402344 -36.949219 157.800781 -26.824219 157.199219 Z M -26.824219 157.199219 " clip-rule="nonzero"/></clipPath></defs><g clip-path="url(#442fedbaa7)"><g clip-path="url(#b9edcea563)"><g clip-path="url(#015caaaf6d)"><path fill="#ffc536" d="M -65.003906 159.46875 L 845.269531 105.308594 L 879.15625 674.839844 L -31.117188 729 Z M -65.003906 159.46875 " fill-opacity="1" fill-rule="nonzero"/></g></g></g></svg>