<svg xmlns="http://www.w3.org/2000/svg" version="1.1" x="0px" y="0px" viewBox="0 0 362.8 411.4" style="enable-background:new 0 0 362.8 411.4;" xml:space="preserve">
<style type="text/css">
	.st0{display:none;}
	.st1{display:inline;fill:#E44D26;}
	.st2{display:inline;fill:#F16529;}
	.st3{display:inline;fill:#EBEBEB;}
	.st4{display:inline;fill:#FFFFFF;}
	.st5{fill:#E6A329;}
	.st6{fill:#F1BF22;}
	.st7{fill:#FFFFFF;}
	.st8{fill:#EBEBEB;}
</style>
    <g id="Calque_1" class="st0">
	<title>HTML5 Logo</title>
        <path class="st1" d="M33,370.4L0,0h362.8l-33,370.2l-148.7,41.2"/>
        <path class="st2" d="M181.4,379.9V30.4h148.3l-28.3,316"/>
        <path class="st3" d="M67.4,75.7h114v45.4h-64.2l4.2,46.5h60v45.3H79.8 M81.8,235.7h45.6l3.2,36.3l50.8,13.6V333l-93.2-26"/>
        <path class="st4" d="M295,75.7H181.2v45.4h109.6 M286.7,167.6H181.2V213h56l-5.3,59l-50.7,13.6v47.2l93-25.8"/>
</g>
    <g id="Calque_2">
	<path class="st5" d="M362.8,0H0l34,368.8l147.4,41.8l147.4-41.8L362.8,0z"/>
        <path class="st6" d="M181.4,30v349.3l119.4-33.8l29-315.5L181.4,30z"/>
        <path class="st7" d="M276.4,75.3H92.8L80,213.4l0.3-0.9h156l-5.1,58.4l-49.8,14.3l-50.5-14.5l-3-35.4H82l6.5,70.7l92.8,26.4   l92.9-26.4L287,167.3H121.5l2.1-46.2h114.8l1.7,26.5h46.2L276.4,75.3z"/>
        <path class="st8" d="M181.4,75.3H92.8L80,213.4l0.3-0.9h101.2v-45H128l2.1-46.2h51.3L181.4,75.3L181.4,75.3z M128,235.4H82   l6.5,70.6l92.8,26.3v-47l-50.5-14.6L128,235.4z"/>
</g>
</svg>